<svg width="226" height="290" viewBox="0 0 226 290" fill="none" xmlns="http://www.w3.org/2000/svg">
<path d="M158.786 235.137C144.127 234.998 128.997 237.635 116.311 226.205C114.379 224.466 111.914 224.293 110.03 226.051C97.4083 237.815 82.2152 234.983 67.5859 235.122C62.113 235.175 57.001 232.696 57.1476 241.106C57.2829 249.027 61.9138 247.867 67.6009 247.848C82.7565 247.807 97.912 247.848 113.083 247.848C128.561 247.848 144.04 248.002 159.515 247.78C167.172 247.668 170.905 244.828 168.999 238.221C167.304 232.418 163.067 235.175 158.786 235.137Z" fill="#282E6B"/>
<path d="M149.387 255.552C137.491 255.631 125.594 255.578 113.701 255.578C101.808 255.578 89.9076 255.74 78.0147 255.507C72.3201 255.394 68.1478 255.785 67.9261 262.118C67.7043 268.45 71.4631 269.329 77.3457 269.296C101.458 269.153 125.571 269.205 149.68 269.258C154.916 269.258 158.578 267.301 158.672 260.995C158.773 254.249 155.123 255.529 149.387 255.552Z" fill="#282E6B"/>
<path d="M130.471 275.438C124.991 275.405 119.514 275.438 114.034 275.438V275.472C107.914 275.472 101.791 275.435 95.668 275.472C90.8643 275.513 87.3573 275.957 87.0679 281.482C86.7521 287.492 90.199 288.915 95.3711 289.043C107.287 289.34 119.217 289.268 131.136 289.096C136.365 289.017 139.665 288.085 139.537 281.812C139.406 275.269 135.545 275.48 130.471 275.438Z" fill="#282E6B"/>
<path d="M125.27 115.887C124.263 114.94 124.143 114.155 125.158 113.122C131.514 106.714 137.802 100.228 145.91 95.8969C152.278 92.4863 158.995 90.9163 166.185 92.8056C175.849 95.3447 182.247 104.108 182.156 114.546C182.062 124.845 174.639 134.138 164.685 136.395C162.847 136.812 160.99 137.086 160.032 137.015C151.191 136.947 144.854 133.225 138.937 128.564C134.043 124.695 129.8 120.135 125.27 115.887Z" fill="#282E6B"/>
<path d="M214.676 125.069C218.175 132.604 219.686 140.492 218.434 148.733C215.833 166.011 206.109 177.985 189.567 184.709C187.586 185.513 187.187 186.414 187.447 188.296C189.83 205.356 178.613 221.278 161.424 225.481C158.068 226.304 154.658 226.139 151.275 226.608H132.162C131.951 226.524 131.734 226.457 131.512 226.409C122.66 225.158 118.322 220.309 118.318 211.618V130.703C120.893 133.239 123.55 135.699 126.234 138.122C134.395 145.484 143.525 151.069 154.651 152.872H164.935C172.983 151.4 180.282 148.387 186.398 142.832C193.273 136.585 197.223 128.814 198.866 119.807V108.617C198.114 105.402 197.441 102.172 196.257 99.0732C191.371 86.2686 181.812 79.1095 168.476 76.4915C167.807 76.36 167.141 76.206 166.476 76.0595H155.151C142.081 78.4033 131.775 85.6113 122.366 94.3593C120.998 95.6314 119.645 96.9222 118.307 98.2318C118.307 72.7854 118.307 47.3378 118.307 21.8889C118.116 18.0929 119.076 14.3277 121.062 11.0863C124.904 4.46429 132.136 0.216131 140.382 0.223643C151.114 0.223643 159.951 7.45791 161.928 17.9112C162.206 19.3873 162.868 19.8343 164.382 19.7254C167.014 19.5413 169.701 19.4324 172.332 19.8982C183.5 21.8739 191.829 29.003 195.194 38.4496C196.796 43.0203 197.237 47.9169 196.479 52.7003C196.231 54.3417 196.607 55.0253 198.212 55.6113C226.328 65.9068 234.947 98.9117 215.269 120.968C214.033 122.331 213.912 123.424 214.676 125.069Z" fill="#282E6B"/>
<path d="M100.515 112.952C101.534 113.899 101.989 114.684 100.801 115.89C94.7041 122.102 88.5622 128.258 80.9092 132.653C76.237 135.339 71.2415 136.958 65.7837 136.961C54.3456 136.961 45.9709 129.34 44.1705 118.136C41.5806 102.033 57.2549 86.5843 76.0716 93.8599C80.7626 95.6741 84.8673 98.4499 88.5659 101.748C92.6292 105.41 96.5158 109.237 100.515 112.952Z" fill="#282E6B"/>
<path d="M107.731 63.8339V98.315C105.213 95.8247 102.638 93.3907 99.9732 91.0507C91.5308 83.6211 82.3067 77.7315 70.8498 76.0601H61.5843C54.2471 77.3221 47.4624 79.8425 41.5874 84.5188C33.5736 90.9042 28.9577 99.2014 27.1384 109.125V120.311C27.9804 124.551 28.954 128.747 30.8973 132.665C35.9379 142.78 44.0005 149.192 55.0139 152.001C56.1716 152.298 57.3331 152.58 58.4908 152.865H70.316C83.408 150.878 93.7147 143.85 103.059 135.117C104.619 133.656 106.19 132.195 107.713 130.696C107.713 157.808 107.713 184.918 107.713 212.027C107.713 213.564 107.773 215.104 107.337 216.629C105.878 221.887 102.206 224.971 97.0488 226.635H67.8878C67.512 226.534 67.1662 226.413 66.7978 226.338C48.0037 222.631 36.2423 206.878 38.5878 188.465C38.8321 186.561 38.2458 185.784 36.4303 185.085C11.9603 175.882 0.439532 148.722 11.2461 125.659C12.1595 123.714 11.84 122.504 10.453 120.987C3.41277 113.268 -0.0378415 104.111 0.0373349 93.8903C0.165135 77.0366 10.8928 62.2526 27.1272 56.2203C29.2284 55.439 29.8222 54.5826 29.4652 52.3966C28.0143 43.457 30.6717 35.6105 36.9828 29.0335C43.2939 22.4566 51.1724 19.3954 60.4754 20.0715C62.5315 20.2217 63.7494 19.9776 64.2343 17.5211C65.4521 11.3535 69.0681 6.58328 74.7064 3.48449C89.8619 -4.85032 107.619 5.16722 107.701 22.0772C107.773 36.0086 107.731 49.9213 107.731 63.8339Z" fill="#282E6B"/>
</svg>
