<svg width="773" height="109" viewBox="0 0 773 109" fill="none" xmlns="http://www.w3.org/2000/svg">
<path d="M492.706 0.705566C486.23 0.70783 480.019 3.28159 475.44 7.86115C470.86 12.4407 468.286 18.6513 468.284 25.1277V108.385C474.761 108.385 480.973 105.812 485.553 101.232C490.133 96.652 492.706 90.4401 492.706 83.9629V66.7564H503.005C509.482 66.7564 515.694 64.1834 520.274 59.6033C524.854 55.0233 527.427 48.8114 527.427 42.3342H492.706V0.705566Z" fill="#282E6B"/>
<path d="M559.091 0.705566H534.669V108.377H559.091V0.705566Z" fill="#282E6B"/>
<path d="M168.383 69.0456C168.383 92.9554 151.501 108.668 126.046 108.668C100.591 108.668 83.845 92.9298 83.845 69.0456C83.845 45.3066 100.582 29.5688 126.046 29.5688C151.51 29.5688 168.383 45.3066 168.383 69.0456ZM109.463 69.336C109.463 80.9237 116.183 88.6431 126.054 88.6431C136.062 88.6431 142.783 80.9578 142.783 69.336C142.783 57.8934 136.062 50.1654 126.054 50.1654C116.175 50.1654 109.454 57.8934 109.454 69.336H109.463Z" fill="#282E6B"/>
<path d="M256.912 30.4404V107.814H231.457V95.2275C226.162 104.236 217.725 108.813 206.693 108.959C189.956 108.959 179.085 97.3708 179.085 79.3445V30.4404H204.541V72.0606C204.541 80.7876 209.4 86.082 216.983 86.082C225.991 85.9368 231.431 78.7809 231.431 68.6278V30.4404H256.912Z" fill="#282E6B"/>
<path d="M355.457 59.0366V107.813H330.138V66.3035C330.138 57.5764 325.015 52.1455 316.979 52.1455C308.44 52.2821 302.813 58.1229 301.814 66.8756V107.813H276.358V30.4388H301.814V43.0256C307.253 34.1533 316.117 29.4312 327.431 29.4312C344.296 29.4226 355.457 40.8652 355.457 59.0366Z" fill="#282E6B"/>
<path d="M450.85 1.67871V107.813H425.395V97.7961C420.101 104.952 412.236 108.812 402.51 108.812C380.769 108.812 366.466 92.7922 366.466 68.7628C366.466 45.1604 380.624 29.5678 401.938 29.5678C411.946 29.5678 419.955 33.5727 425.395 40.5834V1.67871H450.85ZM425.395 69.4716C425.395 57.8924 418.666 50.1644 408.803 50.1644C398.787 50.1644 392.067 58.029 392.067 69.4716C392.067 80.9141 398.787 88.7873 408.803 88.7873C418.666 88.7873 425.395 80.9226 425.395 69.4716Z" fill="#282E6B"/>
<path d="M647.643 75.911H593.846C596.279 84.6381 602.709 89.5054 611.437 89.5054C614.835 89.4713 618.192 88.7614 621.313 87.4171C624.435 86.0727 627.257 84.1208 629.617 81.675L642.921 94.9791C635.056 103.851 623.468 108.71 609.165 108.71C583.846 108.71 568.262 93.1175 568.262 69.5151C568.262 45.4858 584.418 29.6114 608.593 29.6114C635.628 29.5857 649.359 47.7316 647.643 75.911ZM623.041 62.3251C623.041 53.4528 617.32 47.4498 608.738 47.4498C600.438 47.4498 595.007 53.4272 593.291 62.3251H623.041Z" fill="#282E6B"/>
<path d="M729.588 57.4571V107.838H704.56V99.0858C699.556 105.516 691.682 109 681.247 109C664.656 109 654.776 98.9833 654.776 84.8253C654.776 70.0866 665.219 61.6499 684.381 61.3681H704.551V60.5141C704.551 53.2217 699.547 48.9264 689.821 48.9264C683.382 48.9264 674.945 51.0783 666.645 55.0832L659.677 37.8681C671.837 32.4287 682.998 29.4229 695.721 29.4229C717.001 29.4229 729.451 39.7211 729.588 57.4571ZM704.56 81.6743V74.954H689.394C682.247 74.954 678.669 77.5157 678.669 82.9637C678.669 88.2581 682.528 91.6908 689.112 91.6908C696.695 91.6481 702.988 87.4981 704.56 81.6743Z" fill="#282E6B"/>
<path d="M772.927 1.67871V107.813H747.471V1.67871H772.927Z" fill="#282E6B"/>
<path d="M25.0186 108.386H0.818359V1.646H79.8659V21.4655H25.0442L25.0186 108.386ZM23.2253 49.6962H73.4188V69.5157H23.2253V49.6962Z" fill="#282E6B"/>
</svg>
